<?xml version="1.0" encoding="UTF-8"?>
<svg version="1.1" xmlns="http://www.w3.org/2000/svg" width="500" height="500">
<path d="M0 0 C2.65849844 3.20350135 4.92502049 6.37868887 6.9609375 10.0078125 C7.5075 10.97976563 8.0540625 11.95171875 8.6171875 12.953125 C9.48730469 14.52320313 9.48730469 14.52320313 10.375 16.125 C11.29539062 17.78402344 11.29539062 17.78402344 12.234375 19.4765625 C14.16688752 22.97874846 16.08590029 26.48771995 18 30 C18.59200195 31.08249023 19.18400391 32.16498047 19.79394531 33.28027344 C45.169796 79.98490293 64.51427149 131.22150915 64.375 185 C64.37418427 186.20039917 64.37418427 186.20039917 64.37335205 187.42504883 C64.3061201 209.10062846 60.75125232 229.40369394 54 250 C53.77618652 250.69319336 53.55237305 251.38638672 53.32177734 252.10058594 C45.16707752 276.86310234 31.34961784 300.56228656 14 320 C13.57122559 320.48227051 13.14245117 320.96454102 12.70068359 321.46142578 C9.52010321 325.02561643 6.27303311 328.52060263 3 332 C2.30648437 332.75925781 1.61296875 333.51851563 0.8984375 334.30078125 C-13.00328792 348.9807886 -31.34714752 361.24082509 -49.57397461 369.89160156 C-52.46998564 371.26894728 -55.36018981 372.65724228 -58.24560547 374.05664062 C-68.93772603 379.21360169 -79.76025211 383.90808701 -90.75759888 388.37277222 C-132.48091447 405.34532294 -174.44991304 424.48062898 -194.3125 467.875 C-197.29802265 475.09882592 -198.77189338 482.30817436 -200 490 C-200.33 490 -200.66 490 -201 490 C-206.19654452 450.11300961 -191.55443621 408.18160266 -174 373 C-173.41436279 371.82026611 -173.41436279 371.82026611 -172.81689453 370.61669922 C-159.23585353 343.51942912 -141.51345843 318.89494665 -123 295 C-122.51354004 294.37029297 -122.02708008 293.74058594 -121.52587891 293.09179688 C-115.72848567 285.59706798 -109.76329533 278.27864793 -103.609375 271.07421875 C-101.23730965 268.29266912 -98.92507288 265.46651339 -96.625 262.625 C-91.44500022 256.26311078 -86.04549593 250.09687458 -80.65966797 243.90966797 C-73.79384928 236.00963358 -66.9789075 228.07216688 -60.38671875 219.94140625 C-58.62802203 217.77397805 -56.85994058 215.61638421 -55.08203125 213.46484375 C-46.3779874 202.89603261 -38.115178 192.02603155 -30 181 C-29.27852783 180.02135986 -29.27852783 180.02135986 -28.54248047 179.02294922 C-18.43710378 165.26045937 -9.26346965 150.94054256 -1 136 C-1.78503906 136.85722656 -2.57007813 137.71445313 -3.37890625 138.59765625 C-8.3063423 143.96469151 -13.23059738 149.2996461 -18.43359375 154.40234375 C-20.16144192 156.16466271 -21.76679173 158.00303092 -23.375 159.875 C-25.96634205 162.8846753 -28.67254783 165.71088616 -31.5 168.5 C-34.28621141 171.2485599 -36.95308392 174.02859791 -39.5 177 C-42.75044651 180.79218759 -46.25449569 184.27135531 -49.80859375 187.77734375 C-52.42101068 190.4270144 -54.83302621 193.21172803 -57.25390625 196.03515625 C-59.72481389 198.81561832 -62.3816694 201.39118218 -65.03125 204 C-66.93986455 205.93891002 -68.72710552 207.93699551 -70.5 210 C-73.51641923 213.51001511 -76.73095132 216.75051276 -80.02734375 219.99609375 C-82.57337829 222.58246151 -84.92021557 225.3153528 -87.28515625 228.06640625 C-89.5004738 230.56431556 -91.8689817 232.88024989 -94.25 235.21875 C-96.08242487 237.08389674 -97.79353135 239.01927746 -99.5 241 C-101.7455794 243.60647609 -104.04551512 246.08934521 -106.5 248.5 C-109.44882783 251.40336132 -112.1613211 254.44254885 -114.859375 257.578125 C-117.08444635 260.09554149 -119.369371 262.54623328 -121.66918945 264.99511719 C-126.84016769 270.50431455 -131.8424112 276.06982941 -136.56640625 281.97265625 C-138.44846794 284.31390475 -140.35102025 286.62915026 -142.27734375 288.93359375 C-164.76927334 315.87631056 -184.72782429 345.37256805 -198 378 C-200 377 -200 377 -201.18359375 373.44921875 C-201.61382204 371.86525821 -202.03082135 370.27766975 -202.4375 368.6875 C-202.76572754 367.41447021 -202.76572754 367.41447021 -203.10058594 366.11572266 C-216.25509401 313.21594686 -210.84095619 247.85684996 -183.34423828 200.20849609 C-164.60372285 169.41904774 -131.59722142 150.30345845 -101.24316406 132.87109375 C-95.97641249 129.83252223 -90.73496718 126.75160334 -85.50030518 123.65814209 C-83.81361858 122.66255175 -82.12438637 121.67127794 -80.43505859 120.68017578 C-45.07348894 99.78690968 -13.2831695 73.92695491 -1.9453125 32.91015625 C-0.05808055 25.4330105 0.12736508 18.23154889 0.0625 10.5625 C0.05573242 9.03592773 0.05573242 9.03592773 0.04882812 7.47851562 C0.03712437 4.98561491 0.02072848 2.49283926 0 0 Z " fill="#006838" transform="translate(433,5)"/>
<path d="M0 0 C0.93624626 3.41395672 0.97902559 6.20345505 0.8125 9.75 C0.74426217 30.10761827 10.82768645 49.64578662 24.86328125 63.984375 C37.2616736 76.13869676 52.03999848 85.35346391 67 94 C104.93000236 115.97147395 140.6937675 137.5675072 152.75 182.25 C155.25009784 192.04705808 156.78847963 201.97042297 158 212 C158.13277344 213.07894531 158.26554688 214.15789062 158.40234375 215.26953125 C160.71116216 238.89538542 159.59967898 263.39384831 152 286 C149.70268269 283.90394599 148.39085308 282.06636742 147.16015625 279.21875 C146.8257251 278.46875732 146.49129395 277.71876465 146.14672852 276.94604492 C145.78893311 276.1388501 145.4311377 275.33165527 145.0625 274.5 C140.27016056 264.05700663 134.41144093 254.51779271 128 245 C127.35611328 244.04335449 127.35611328 244.04335449 126.69921875 243.06738281 C112.98533175 222.89926169 96.50422176 204.61550824 79.796875 186.91015625 C77.9403644 184.93660477 76.09384574 182.95413577 74.25 180.96875 C73.6324585 180.30423828 73.01491699 179.63972656 72.37866211 178.95507812 C71.2120696 177.69925439 70.04615806 176.44279754 68.88110352 175.18554688 C66.07190443 172.16771259 63.22281256 169.20591557 60.296875 166.30078125 C57.98662546 164.00620418 55.77954686 161.68555056 53.6875 159.1875 C50.92381971 155.97666245 48.01380404 152.97732835 45 150 C41.41441301 146.45767801 38.05108338 142.82444339 34.77734375 138.99609375 C32.05022777 135.93333273 29.10595363 133.09776507 26.1875 130.21875 C24.20279658 128.20569368 22.33903084 126.14553597 20.5 124 C16.57341983 119.42356624 12.2969601 115.22547647 8 111 C6.66551873 109.6678156 5.33182929 108.33483568 4 107 C20.00836586 134.77208927 40.4194706 159.66294819 61.45507812 183.75634766 C65.30143874 188.16786371 69.02690763 192.66328831 72.70703125 197.21484375 C74.84345637 199.80985416 77.02887135 202.35008772 79.23632812 204.88427734 C86.55305168 213.29850943 93.32191366 222.07421866 100 231 C100.48355957 231.6408252 100.96711914 232.28165039 101.46533203 232.94189453 C125.26744357 264.50538545 145.88937519 300.42195313 152 340 C152.28037109 341.81371094 152.28037109 341.81371094 152.56640625 343.6640625 C153.22369727 349.09584245 153.10693951 354.53735906 153.0625 360 C153.05798828 361.06089844 153.05347656 362.12179687 153.04882812 363.21484375 C153.03713843 365.80995598 153.02075276 368.40494709 153 371 C152.67 371 152.34 371 152 371 C151.79246094 370.07960938 151.58492187 369.15921875 151.37109375 368.2109375 C145.5335149 344.22557169 131.51864082 327.48014828 111 314 C107.76922623 312.04171423 104.47465621 310.24619599 101.125 308.5 C100.17028809 308.00081055 99.21557617 307.50162109 98.23193359 306.98730469 C87.46848692 301.51095948 76.31767383 296.95468101 65.12939453 292.42773438 C51.67355104 286.97473907 38.10248 281.39058556 25.75 273.6875 C25.01040039 273.23165527 24.27080078 272.77581055 23.50878906 272.30615234 C16.42040249 267.82726044 10.23419606 262.58987971 4 257 C2.94965866 256.1278314 1.89626755 255.25932241 0.83984375 254.39453125 C-2.9014778 251.23988186 -5.89431793 247.76949198 -9 244 C-9.41443359 243.49791016 -9.82886719 242.99582031 -10.25585938 242.47851562 C-39.4748694 206.8507184 -51.85447972 164.38858193 -47.57421875 118.5 C-42.53893971 76.71897223 -22.9275394 34.97421264 0 0 Z " fill="#37A808" transform="translate(50,35)"/>
</svg>
